<mxfile host="app.diagrams.net" modified="2023-11-23T08:48:03.962Z" agent="Mozilla/5.0 (Macintosh; Intel Mac OS X 10_13_6) AppleWebKit/605.1.15 (KHTML, like Gecko) Version/13.1.2 Safari/605.1.15" etag="6eF3v62mJjp9SB2OQsHn" version="22.1.3" type="github">
  <diagram name="Page-1" id="fc2ac565-0d4e-3f0d-88b0-a54af1634ed7">
    <mxGraphModel dx="1214" dy="1876.5" grid="1" gridSize="10" guides="1" tooltips="1" connect="0" arrows="1" fold="1" page="1" pageScale="1.5" pageWidth="1169" pageHeight="827" background="none" math="0" shadow="0">
      <root>
        <mxCell id="0" style=";html=1;" />
        <mxCell id="1" style=";html=1;" parent="0" />
        <mxCell id="75" value="Формирование набора исходных данных" style="align=left;strokeColor=#CCCCCC;html=1;" parent="1" vertex="1">
          <mxGeometry x="297.0000000000003" y="149.99999999999977" width="319.9999999999997" height="20.000000000000014" as="geometry" />
        </mxCell>
        <mxCell id="80" value="Проектирование информационно-поисковой системы&lt;span style=&quot;white-space: pre;&quot;&gt;&lt;br/&gt;&lt;/span&gt;" style="align=left;strokeColor=#CCCCCC;html=1;" parent="1" vertex="1">
          <mxGeometry x="297" y="170.00000000000023" width="320" height="20" as="geometry" />
        </mxCell>
        <mxCell id="85" value="Изучение и выбор моделей транскрибаторов" style="align=left;strokeColor=#CCCCCC;html=1;" parent="1" vertex="1">
          <mxGeometry x="296.9999999999999" y="190.00000000000023" width="320.0000000000001" height="20" as="geometry" />
        </mxCell>
        <mxCell id="90" value="Оценка качества распознавания" style="align=left;strokeColor=#CCCCCC;html=1;" parent="1" vertex="1">
          <mxGeometry x="296.9999999999999" y="210.00000000000045" width="320.0000000000001" height="20" as="geometry" />
        </mxCell>
        <mxCell id="95" value="Тестирование двух лучших транскрибаторов" style="align=left;strokeColor=#CCCCCC;html=1;" parent="1" vertex="1">
          <mxGeometry x="297.0000000000006" y="230.00000000000068" width="319.9999999999994" height="20" as="geometry" />
        </mxCell>
        <mxCell id="100" value="Дополнительный анализ и разработка алгоритмов" style="align=left;strokeColor=#CCCCCC;html=1;" parent="1" vertex="1">
          <mxGeometry x="297.0000000000006" y="250.00000000000057" width="319.9999999999994" height="20" as="geometry" />
        </mxCell>
        <mxCell id="2" value="задача" style="strokeWidth=1;fontStyle=0;html=1;" parent="1" vertex="1">
          <mxGeometry x="297" y="130" width="320" height="20" as="geometry" />
        </mxCell>
        <mxCell id="67c90442a009f359-289" value="Разработка, отладка и тестирование ИПС" style="align=left;strokeColor=#CCCCCC;html=1;" parent="1" vertex="1">
          <mxGeometry x="297.0000000000006" y="270.00000000000057" width="319.9999999999994" height="20" as="geometry" />
        </mxCell>
        <mxCell id="67c90442a009f359-290" value="Сдача работы. Отчетность." style="align=left;strokeColor=#CCCCCC;html=1;" parent="1" vertex="1">
          <mxGeometry x="297.0000000000006" y="290.00000000000057" width="319.9999999999994" height="20" as="geometry" />
        </mxCell>
        <mxCell id="67c90442a009f359-291" value="" style="align=left;strokeColor=#CCCCCC;html=1;" parent="1" vertex="1">
          <mxGeometry x="617" y="150" width="840" height="20" as="geometry" />
        </mxCell>
        <mxCell id="4" value="1-10.09" style="strokeWidth=1;fontStyle=0;html=1;" parent="1" vertex="1">
          <mxGeometry x="617" y="130" width="70" height="20" as="geometry" />
        </mxCell>
        <mxCell id="67c90442a009f359-278" value="11-20.09" style="strokeWidth=1;fontStyle=0;html=1;" parent="1" vertex="1">
          <mxGeometry x="687" y="130" width="70" height="20" as="geometry" />
        </mxCell>
        <mxCell id="67c90442a009f359-279" value="21-30.09" style="strokeWidth=1;fontStyle=0;html=1;" parent="1" vertex="1">
          <mxGeometry x="757" y="130" width="70" height="20" as="geometry" />
        </mxCell>
        <mxCell id="67c90442a009f359-280" value="1-10.10" style="strokeWidth=1;fontStyle=0;html=1;" parent="1" vertex="1">
          <mxGeometry x="827" y="130" width="70" height="20" as="geometry" />
        </mxCell>
        <mxCell id="67c90442a009f359-281" value="11-20.10" style="strokeWidth=1;fontStyle=0;html=1;" parent="1" vertex="1">
          <mxGeometry x="897" y="130" width="70" height="20" as="geometry" />
        </mxCell>
        <mxCell id="67c90442a009f359-282" value="21-31.10" style="strokeWidth=1;fontStyle=0;html=1;" parent="1" vertex="1">
          <mxGeometry x="967" y="130" width="70" height="20" as="geometry" />
        </mxCell>
        <mxCell id="67c90442a009f359-283" value="1-10.11" style="strokeWidth=1;fontStyle=0;html=1;" parent="1" vertex="1">
          <mxGeometry x="1037" y="130" width="70" height="20" as="geometry" />
        </mxCell>
        <mxCell id="67c90442a009f359-284" value="11-20.11" style="strokeWidth=1;fontStyle=0;html=1;" parent="1" vertex="1">
          <mxGeometry x="1107" y="130" width="70" height="20" as="geometry" />
        </mxCell>
        <mxCell id="67c90442a009f359-285" value="21-30.11" style="strokeWidth=1;fontStyle=0;html=1;" parent="1" vertex="1">
          <mxGeometry x="1177" y="130" width="70" height="20" as="geometry" />
        </mxCell>
        <mxCell id="67c90442a009f359-286" value="1-10.12" style="strokeWidth=1;fontStyle=0;html=1;" parent="1" vertex="1">
          <mxGeometry x="1247" y="130" width="70" height="20" as="geometry" />
        </mxCell>
        <mxCell id="67c90442a009f359-287" value="11-20.12" style="strokeWidth=1;fontStyle=0;html=1;" parent="1" vertex="1">
          <mxGeometry x="1317" y="130" width="70" height="20" as="geometry" />
        </mxCell>
        <mxCell id="67c90442a009f359-288" value="21-31.12" style="strokeWidth=1;fontStyle=0;html=1;" parent="1" vertex="1">
          <mxGeometry x="1387" y="130" width="70" height="20" as="geometry" />
        </mxCell>
        <mxCell id="67c90442a009f359-292" value="" style="align=left;strokeColor=#CCCCCC;html=1;" parent="1" vertex="1">
          <mxGeometry x="617" y="170" width="840" height="20" as="geometry" />
        </mxCell>
        <mxCell id="67c90442a009f359-293" value="" style="align=left;strokeColor=#CCCCCC;html=1;" parent="1" vertex="1">
          <mxGeometry x="617" y="190" width="840" height="20" as="geometry" />
        </mxCell>
        <mxCell id="67c90442a009f359-294" value="" style="align=left;strokeColor=#CCCCCC;html=1;" parent="1" vertex="1">
          <mxGeometry x="617" y="210" width="840" height="20" as="geometry" />
        </mxCell>
        <mxCell id="67c90442a009f359-295" value="" style="align=left;strokeColor=#CCCCCC;html=1;" parent="1" vertex="1">
          <mxGeometry x="617" y="230" width="840" height="20" as="geometry" />
        </mxCell>
        <mxCell id="67c90442a009f359-296" value="" style="align=left;strokeColor=#CCCCCC;html=1;" parent="1" vertex="1">
          <mxGeometry x="617" y="250" width="840" height="20" as="geometry" />
        </mxCell>
        <mxCell id="67c90442a009f359-297" value="" style="align=left;strokeColor=#CCCCCC;html=1;" parent="1" vertex="1">
          <mxGeometry x="617" y="270" width="840" height="20" as="geometry" />
        </mxCell>
        <mxCell id="67c90442a009f359-298" value="" style="align=left;strokeColor=#CCCCCC;html=1;" parent="1" vertex="1">
          <mxGeometry x="617" y="290" width="840" height="20" as="geometry" />
        </mxCell>
        <mxCell id="67c90442a009f359-299" value="" style="whiteSpace=wrap;html=1;strokeWidth=2;fillColor=#CCCCCC;gradientColor=none;fontSize=14;align=center;strokeColor=#999999;" parent="1" vertex="1">
          <mxGeometry x="617" y="150" width="143" height="20" as="geometry" />
        </mxCell>
        <mxCell id="67c90442a009f359-300" value="" style="whiteSpace=wrap;html=1;strokeWidth=2;fillColor=#CCCCCC;gradientColor=none;fontSize=14;align=center;strokeColor=#999999;" parent="1" vertex="1">
          <mxGeometry x="650" y="170" width="180" height="20" as="geometry" />
        </mxCell>
        <mxCell id="67c90442a009f359-301" value="" style="whiteSpace=wrap;html=1;strokeWidth=2;fillColor=#CCCCCC;gradientColor=none;fontSize=14;align=center;strokeColor=#999999;" parent="1" vertex="1">
          <mxGeometry x="687" y="190" width="173" height="20" as="geometry" />
        </mxCell>
        <mxCell id="67c90442a009f359-302" value="" style="whiteSpace=wrap;html=1;strokeWidth=2;fillColor=#CCCCCC;gradientColor=none;fontSize=14;align=center;strokeColor=#999999;" parent="1" vertex="1">
          <mxGeometry x="787" y="210" width="163" height="20" as="geometry" />
        </mxCell>
        <mxCell id="67c90442a009f359-303" value="" style="whiteSpace=wrap;html=1;strokeWidth=2;fillColor=#CCCCCC;gradientColor=none;fontSize=14;align=center;strokeColor=#999999;" parent="1" vertex="1">
          <mxGeometry x="860" y="230" width="167" height="20" as="geometry" />
        </mxCell>
        <mxCell id="67c90442a009f359-304" value="" style="whiteSpace=wrap;html=1;strokeWidth=2;fillColor=#CCCCCC;gradientColor=none;fontSize=14;align=center;strokeColor=#999999;" parent="1" vertex="1">
          <mxGeometry x="950" y="250" width="120" height="20" as="geometry" />
        </mxCell>
        <mxCell id="67c90442a009f359-305" value="" style="whiteSpace=wrap;html=1;strokeWidth=2;fillColor=#CCCCCC;gradientColor=none;fontSize=14;align=center;strokeColor=#999999;" parent="1" vertex="1">
          <mxGeometry x="840" y="270" width="307" height="20" as="geometry" />
        </mxCell>
        <mxCell id="67c90442a009f359-306" value="" style="whiteSpace=wrap;html=1;strokeWidth=2;fillColor=#CCCCCC;gradientColor=none;fontSize=14;align=center;strokeColor=#999999;" parent="1" vertex="1">
          <mxGeometry x="1000" y="290" width="220" height="20" as="geometry" />
        </mxCell>
        <mxCell id="t3raDtDk3WNf8D7AOKck-100" value="&lt;div style=&quot;line-height: 14.399999618530273px; margin-top: 10pt; margin-bottom: 0pt; margin-left: 0.25in; text-indent: -0.25in; text-align: left; direction: ltr; unicode-bidi: embed; word-break: normal;&quot;&gt;&lt;font style=&quot;font-size: 9px;&quot;&gt;&lt;span style=&quot;font-family: Calibri;&quot;&gt;формирование&amp;nbsp;&lt;/span&gt;&lt;span style=&quot;font-family: Calibri;&quot;&gt;набора исходных данных и проектирование информационной поисковой&amp;nbsp;&lt;/span&gt;&lt;span style=&quot;font-family: Calibri;&quot;&gt;системы;&lt;/span&gt;&lt;/font&gt;&lt;/div&gt;&lt;div style=&quot;line-height: 14.399999618530273px; margin-top: 10pt; margin-bottom: 0pt; margin-left: 0.25in; text-indent: -0.25in; text-align: left; direction: ltr; unicode-bidi: embed; word-break: normal;&quot;&gt;&lt;font size=&quot;3&quot;&gt;&lt;span style=&quot;font-family: Arial;&quot;&gt;•&lt;/span&gt;&lt;span style=&quot;font-family: Calibri;&quot;&gt;Изучение&amp;nbsp;&lt;/span&gt;&lt;span style=&quot;font-family: Calibri;&quot;&gt;и выбор моделей&amp;nbsp;&lt;/span&gt;&lt;span style=&quot;font-family: Calibri;&quot;&gt;транскрибации&lt;/span&gt;&lt;span style=&quot;font-family: Calibri;&quot;&gt;&amp;nbsp;для решения поставленной&amp;nbsp;&lt;/span&gt;&lt;span style=&quot;font-family: Calibri;&quot;&gt;задачи;&lt;/span&gt;&lt;/font&gt;&lt;/div&gt;&lt;div style=&quot;line-height: 14.399999618530273px; margin-top: 10pt; margin-bottom: 0pt; margin-left: 0.25in; text-indent: -0.25in; text-align: left; direction: ltr; unicode-bidi: embed; word-break: normal;&quot;&gt;&lt;font size=&quot;3&quot;&gt;&lt;span style=&quot;font-family: Arial;&quot;&gt;•&lt;/span&gt;&lt;span style=&quot;font-family: Calibri;&quot;&gt;П&lt;/span&gt;&lt;span style=&quot;font-family: Calibri;&quot;&gt;роектирование&amp;nbsp;&lt;/span&gt;&lt;span style=&quot;font-family: Calibri;&quot;&gt;информационной поисковой&amp;nbsp;&lt;/span&gt;&lt;span style=&quot;font-family: Calibri;&quot;&gt;системы;&lt;/span&gt;&lt;/font&gt;&lt;/div&gt;&lt;div style=&quot;line-height: 14.399999618530273px; margin-top: 10pt; margin-bottom: 0pt; margin-left: 0.25in; text-indent: -0.25in; text-align: left; direction: ltr; unicode-bidi: embed; word-break: normal;&quot;&gt;&lt;font size=&quot;3&quot;&gt;&lt;span style=&quot;font-family: Arial;&quot;&gt;•&lt;/span&gt;&lt;span style=&quot;font-family: Calibri;&quot;&gt;Тестирование&amp;nbsp;&lt;/span&gt;&lt;span style=&quot;font-family: Calibri;&quot;&gt;двух лучших&amp;nbsp;&lt;/span&gt;&lt;span style=&quot;font-family: Calibri;&quot;&gt;транскрибаторов&lt;/span&gt;&lt;span style=&quot;font-family: Calibri;&quot;&gt;&amp;nbsp;для решения&amp;nbsp;&lt;/span&gt;&lt;span style=&quot;font-family: Calibri;&quot;&gt;задачи;&lt;/span&gt;&lt;/font&gt;&lt;/div&gt;&lt;div style=&quot;line-height: 14.399999618530273px; margin-top: 10pt; margin-bottom: 0pt; margin-left: 0.25in; text-indent: -0.25in; text-align: left; direction: ltr; unicode-bidi: embed; word-break: normal;&quot;&gt;&lt;font size=&quot;3&quot;&gt;&lt;span style=&quot;font-family: Arial;&quot;&gt;•&lt;/span&gt;&lt;span style=&quot;font-family: Calibri;&quot;&gt;Разработка&amp;nbsp;&lt;/span&gt;&lt;span style=&quot;font-family: Calibri;&quot;&gt;алгоритмов для ПО для лучшего&amp;nbsp;&lt;/span&gt;&lt;span style=&quot;font-family: Calibri;&quot;&gt;транскрибатора&lt;/span&gt;&lt;span style=&quot;font-family: Calibri;&quot;&gt;;&lt;/span&gt;&lt;/font&gt;&lt;/div&gt;&lt;font size=&quot;3&quot;&gt;&lt;span style=&quot;text-align: start; font-family: Calibri;&quot;&gt;Разработка&amp;nbsp;&lt;/span&gt;&lt;span style=&quot;text-align: start; font-family: Calibri;&quot;&gt;и тестирование&amp;nbsp;&lt;/span&gt;&lt;span style=&quot;text-align: start; font-family: Calibri;&quot;&gt;ПО.&lt;/span&gt;&lt;/font&gt;&lt;span style=&quot;font-family: -webkit-standard; font-size: medium; text-align: start;&quot;&gt;&lt;/span&gt;" style="text;html=1;align=center;verticalAlign=middle;resizable=0;points=[];autosize=1;strokeColor=none;fillColor=none;" vertex="1" parent="1">
          <mxGeometry x="367" y="-70" width="570" height="170" as="geometry" />
        </mxCell>
      </root>
    </mxGraphModel>
  </diagram>
</mxfile>
